%TF.GenerationSoftware,KiCad,Pcbnew,5.1.8-db9833491~87~ubuntu20.04.1*%
%TF.CreationDate,2020-11-21T16:44:56+09:00*%
%TF.ProjectId,ICM-42688-P_breakout,49434d2d-3432-4363-9838-2d505f627265,V1.0.0*%
%TF.SameCoordinates,Original*%
%TF.FileFunction,Legend,Bot*%
%TF.FilePolarity,Positive*%
%FSLAX46Y46*%
G04 Gerber Fmt 4.6, Leading zero omitted, Abs format (unit mm)*
G04 Created by KiCad (PCBNEW 5.1.8-db9833491~87~ubuntu20.04.1) date 2020-11-21 16:44:56*
%MOMM*%
%LPD*%
G01*
G04 APERTURE LIST*
%ADD10C,0.300000*%
G04 APERTURE END LIST*
D10*
X138680000Y-87515714D02*
X138751428Y-87587142D01*
X138965714Y-87658571D01*
X139108571Y-87658571D01*
X139322857Y-87587142D01*
X139465714Y-87444285D01*
X139537142Y-87301428D01*
X139608571Y-87015714D01*
X139608571Y-86801428D01*
X139537142Y-86515714D01*
X139465714Y-86372857D01*
X139322857Y-86230000D01*
X139108571Y-86158571D01*
X138965714Y-86158571D01*
X138751428Y-86230000D01*
X138680000Y-86301428D01*
X138108571Y-87587142D02*
X137894285Y-87658571D01*
X137537142Y-87658571D01*
X137394285Y-87587142D01*
X137322857Y-87515714D01*
X137251428Y-87372857D01*
X137251428Y-87230000D01*
X137322857Y-87087142D01*
X137394285Y-87015714D01*
X137537142Y-86944285D01*
X137822857Y-86872857D01*
X137965714Y-86801428D01*
X138037142Y-86730000D01*
X138108571Y-86587142D01*
X138108571Y-86444285D01*
X138037142Y-86301428D01*
X137965714Y-86230000D01*
X137822857Y-86158571D01*
X137465714Y-86158571D01*
X137251428Y-86230000D01*
X140501428Y-90208571D02*
X140501428Y-88708571D01*
X139787142Y-90208571D02*
X139787142Y-88708571D01*
X138930000Y-90208571D01*
X138930000Y-88708571D01*
X138430000Y-88708571D02*
X137572857Y-88708571D01*
X138001428Y-90208571D02*
X138001428Y-88708571D01*
X137144285Y-88851428D02*
X137072857Y-88780000D01*
X136930000Y-88708571D01*
X136572857Y-88708571D01*
X136430000Y-88780000D01*
X136358571Y-88851428D01*
X136287142Y-88994285D01*
X136287142Y-89137142D01*
X136358571Y-89351428D01*
X137215714Y-90208571D01*
X136287142Y-90208571D01*
X140501428Y-92758571D02*
X140501428Y-91258571D01*
X139787142Y-92758571D02*
X139787142Y-91258571D01*
X138930000Y-92758571D01*
X138930000Y-91258571D01*
X138430000Y-91258571D02*
X137572857Y-91258571D01*
X138001428Y-92758571D02*
X138001428Y-91258571D01*
X137144285Y-91401428D02*
X137072857Y-91330000D01*
X136930000Y-91258571D01*
X136572857Y-91258571D01*
X136430000Y-91330000D01*
X136358571Y-91401428D01*
X136287142Y-91544285D01*
X136287142Y-91687142D01*
X136358571Y-91901428D01*
X137215714Y-92758571D01*
X136287142Y-92758571D01*
X139572857Y-93880000D02*
X139715714Y-93808571D01*
X139930000Y-93808571D01*
X140144285Y-93880000D01*
X140287142Y-94022857D01*
X140358571Y-94165714D01*
X140430000Y-94451428D01*
X140430000Y-94665714D01*
X140358571Y-94951428D01*
X140287142Y-95094285D01*
X140144285Y-95237142D01*
X139930000Y-95308571D01*
X139787142Y-95308571D01*
X139572857Y-95237142D01*
X139501428Y-95165714D01*
X139501428Y-94665714D01*
X139787142Y-94665714D01*
X138858571Y-95308571D02*
X138858571Y-93808571D01*
X138001428Y-95308571D01*
X138001428Y-93808571D01*
X137287142Y-95308571D02*
X137287142Y-93808571D01*
X136930000Y-93808571D01*
X136715714Y-93880000D01*
X136572857Y-94022857D01*
X136501428Y-94165714D01*
X136430000Y-94451428D01*
X136430000Y-94665714D01*
X136501428Y-94951428D01*
X136572857Y-95094285D01*
X136715714Y-95237142D01*
X136930000Y-95308571D01*
X137287142Y-95308571D01*
X134679285Y-87587142D02*
X134465000Y-87658571D01*
X134107857Y-87658571D01*
X133965000Y-87587142D01*
X133893571Y-87515714D01*
X133822142Y-87372857D01*
X133822142Y-87230000D01*
X133893571Y-87087142D01*
X133965000Y-87015714D01*
X134107857Y-86944285D01*
X134393571Y-86872857D01*
X134536428Y-86801428D01*
X134607857Y-86730000D01*
X134679285Y-86587142D01*
X134679285Y-86444285D01*
X134607857Y-86301428D01*
X134536428Y-86230000D01*
X134393571Y-86158571D01*
X134036428Y-86158571D01*
X133822142Y-86230000D01*
X133179285Y-87658571D02*
X133179285Y-86158571D01*
X132822142Y-86158571D01*
X132607857Y-86230000D01*
X132465000Y-86372857D01*
X132393571Y-86515714D01*
X132322142Y-86801428D01*
X132322142Y-87015714D01*
X132393571Y-87301428D01*
X132465000Y-87444285D01*
X132607857Y-87587142D01*
X132822142Y-87658571D01*
X133179285Y-87658571D01*
X131393571Y-86158571D02*
X131107857Y-86158571D01*
X130965000Y-86230000D01*
X130822142Y-86372857D01*
X130750714Y-86658571D01*
X130750714Y-87158571D01*
X130822142Y-87444285D01*
X130965000Y-87587142D01*
X131107857Y-87658571D01*
X131393571Y-87658571D01*
X131536428Y-87587142D01*
X131679285Y-87444285D01*
X131750714Y-87158571D01*
X131750714Y-86658571D01*
X131679285Y-86372857D01*
X131536428Y-86230000D01*
X131393571Y-86158571D01*
X134250714Y-90137142D02*
X134036428Y-90208571D01*
X133679285Y-90208571D01*
X133536428Y-90137142D01*
X133465000Y-90065714D01*
X133393571Y-89922857D01*
X133393571Y-89780000D01*
X133465000Y-89637142D01*
X133536428Y-89565714D01*
X133679285Y-89494285D01*
X133965000Y-89422857D01*
X134107857Y-89351428D01*
X134179285Y-89280000D01*
X134250714Y-89137142D01*
X134250714Y-88994285D01*
X134179285Y-88851428D01*
X134107857Y-88780000D01*
X133965000Y-88708571D01*
X133607857Y-88708571D01*
X133393571Y-88780000D01*
X132750714Y-90208571D02*
X132750714Y-88708571D01*
X132393571Y-88708571D01*
X132179285Y-88780000D01*
X132036428Y-88922857D01*
X131965000Y-89065714D01*
X131893571Y-89351428D01*
X131893571Y-89565714D01*
X131965000Y-89851428D01*
X132036428Y-89994285D01*
X132179285Y-90137142D01*
X132393571Y-90208571D01*
X132750714Y-90208571D01*
X131250714Y-90208571D02*
X131250714Y-88708571D01*
X134643571Y-92687142D02*
X134429285Y-92758571D01*
X134072142Y-92758571D01*
X133929285Y-92687142D01*
X133857857Y-92615714D01*
X133786428Y-92472857D01*
X133786428Y-92330000D01*
X133857857Y-92187142D01*
X133929285Y-92115714D01*
X134072142Y-92044285D01*
X134357857Y-91972857D01*
X134500714Y-91901428D01*
X134572142Y-91830000D01*
X134643571Y-91687142D01*
X134643571Y-91544285D01*
X134572142Y-91401428D01*
X134500714Y-91330000D01*
X134357857Y-91258571D01*
X134000714Y-91258571D01*
X133786428Y-91330000D01*
X133143571Y-92758571D02*
X133143571Y-91258571D01*
X132572142Y-91258571D01*
X132429285Y-91330000D01*
X132357857Y-91401428D01*
X132286428Y-91544285D01*
X132286428Y-91758571D01*
X132357857Y-91901428D01*
X132429285Y-91972857D01*
X132572142Y-92044285D01*
X133143571Y-92044285D01*
X130786428Y-92615714D02*
X130857857Y-92687142D01*
X131072142Y-92758571D01*
X131215000Y-92758571D01*
X131429285Y-92687142D01*
X131572142Y-92544285D01*
X131643571Y-92401428D01*
X131715000Y-92115714D01*
X131715000Y-91901428D01*
X131643571Y-91615714D01*
X131572142Y-91472857D01*
X131429285Y-91330000D01*
X131215000Y-91258571D01*
X131072142Y-91258571D01*
X130857857Y-91330000D01*
X130786428Y-91401428D01*
X134715000Y-93808571D02*
X134215000Y-95308571D01*
X133715000Y-93808571D01*
X133215000Y-95308571D02*
X133215000Y-93808571D01*
X132857857Y-93808571D01*
X132643571Y-93880000D01*
X132500714Y-94022857D01*
X132429285Y-94165714D01*
X132357857Y-94451428D01*
X132357857Y-94665714D01*
X132429285Y-94951428D01*
X132500714Y-95094285D01*
X132643571Y-95237142D01*
X132857857Y-95308571D01*
X133215000Y-95308571D01*
X131715000Y-95308571D02*
X131715000Y-93808571D01*
X131357857Y-93808571D01*
X131143571Y-93880000D01*
X131000714Y-94022857D01*
X130929285Y-94165714D01*
X130857857Y-94451428D01*
X130857857Y-94665714D01*
X130929285Y-94951428D01*
X131000714Y-95094285D01*
X131143571Y-95237142D01*
X131357857Y-95308571D01*
X131715000Y-95308571D01*
M02*
