%TF.GenerationSoftware,KiCad,Pcbnew,5.1.8-db9833491~87~ubuntu20.04.1*%
%TF.CreationDate,2020-11-21T16:44:56+09:00*%
%TF.ProjectId,ICM-42688-P_breakout,49434d2d-3432-4363-9838-2d505f627265,V1.0.0*%
%TF.SameCoordinates,Original*%
%TF.FileFunction,Legend,Top*%
%TF.FilePolarity,Positive*%
%FSLAX46Y46*%
G04 Gerber Fmt 4.6, Leading zero omitted, Abs format (unit mm)*
G04 Created by KiCad (PCBNEW 5.1.8-db9833491~87~ubuntu20.04.1) date 2020-11-21 16:44:56*
%MOMM*%
%LPD*%
G01*
G04 APERTURE LIST*
%ADD10C,0.120000*%
%ADD11C,0.250000*%
%ADD12C,0.150000*%
%ADD13C,0.254000*%
G04 APERTURE END LIST*
D10*
%TO.C,J2*%
X144205000Y-85665000D02*
X141545000Y-85665000D01*
X144205000Y-93345000D02*
X144205000Y-85665000D01*
X141545000Y-93345000D02*
X141545000Y-85665000D01*
X144205000Y-93345000D02*
X141545000Y-93345000D01*
X144205000Y-94615000D02*
X144205000Y-95945000D01*
X144205000Y-95945000D02*
X142875000Y-95945000D01*
%TO.C,J1*%
X130235000Y-85665000D02*
X127575000Y-85665000D01*
X130235000Y-93345000D02*
X130235000Y-85665000D01*
X127575000Y-93345000D02*
X127575000Y-85665000D01*
X130235000Y-93345000D02*
X127575000Y-93345000D01*
X130235000Y-94615000D02*
X130235000Y-95945000D01*
X130235000Y-95945000D02*
X128905000Y-95945000D01*
%TO.C,C3*%
X138289420Y-94105000D02*
X138570580Y-94105000D01*
X138289420Y-95125000D02*
X138570580Y-95125000D01*
%TO.C,C2*%
X138322164Y-91715000D02*
X138537836Y-91715000D01*
X138322164Y-92435000D02*
X138537836Y-92435000D01*
%TO.C,C1*%
X133844420Y-94105000D02*
X134125580Y-94105000D01*
X133844420Y-95125000D02*
X134125580Y-95125000D01*
D11*
%TO.C,IC1*%
X132895000Y-88670000D02*
G75*
G03*
X132895000Y-88670000I-125000J0D01*
G01*
%TO.C,J2*%
D12*
X140001666Y-85177380D02*
X140001666Y-85891666D01*
X139954047Y-86034523D01*
X139858809Y-86129761D01*
X139715952Y-86177380D01*
X139620714Y-86177380D01*
X140430238Y-85272619D02*
X140477857Y-85225000D01*
X140573095Y-85177380D01*
X140811190Y-85177380D01*
X140906428Y-85225000D01*
X140954047Y-85272619D01*
X141001666Y-85367857D01*
X141001666Y-85463095D01*
X140954047Y-85605952D01*
X140382619Y-86177380D01*
X141001666Y-86177380D01*
%TO.C,J1*%
X131111666Y-85177380D02*
X131111666Y-85891666D01*
X131064047Y-86034523D01*
X130968809Y-86129761D01*
X130825952Y-86177380D01*
X130730714Y-86177380D01*
X132111666Y-86177380D02*
X131540238Y-86177380D01*
X131825952Y-86177380D02*
X131825952Y-85177380D01*
X131730714Y-85320238D01*
X131635476Y-85415476D01*
X131540238Y-85463095D01*
%TO.C,C3*%
X138263333Y-93542142D02*
X138215714Y-93589761D01*
X138072857Y-93637380D01*
X137977619Y-93637380D01*
X137834761Y-93589761D01*
X137739523Y-93494523D01*
X137691904Y-93399285D01*
X137644285Y-93208809D01*
X137644285Y-93065952D01*
X137691904Y-92875476D01*
X137739523Y-92780238D01*
X137834761Y-92685000D01*
X137977619Y-92637380D01*
X138072857Y-92637380D01*
X138215714Y-92685000D01*
X138263333Y-92732619D01*
X138596666Y-92637380D02*
X139215714Y-92637380D01*
X138882380Y-93018333D01*
X139025238Y-93018333D01*
X139120476Y-93065952D01*
X139168095Y-93113571D01*
X139215714Y-93208809D01*
X139215714Y-93446904D01*
X139168095Y-93542142D01*
X139120476Y-93589761D01*
X139025238Y-93637380D01*
X138739523Y-93637380D01*
X138644285Y-93589761D01*
X138596666Y-93542142D01*
%TO.C,C2*%
X138263333Y-91272142D02*
X138215714Y-91319761D01*
X138072857Y-91367380D01*
X137977619Y-91367380D01*
X137834761Y-91319761D01*
X137739523Y-91224523D01*
X137691904Y-91129285D01*
X137644285Y-90938809D01*
X137644285Y-90795952D01*
X137691904Y-90605476D01*
X137739523Y-90510238D01*
X137834761Y-90415000D01*
X137977619Y-90367380D01*
X138072857Y-90367380D01*
X138215714Y-90415000D01*
X138263333Y-90462619D01*
X138644285Y-90462619D02*
X138691904Y-90415000D01*
X138787142Y-90367380D01*
X139025238Y-90367380D01*
X139120476Y-90415000D01*
X139168095Y-90462619D01*
X139215714Y-90557857D01*
X139215714Y-90653095D01*
X139168095Y-90795952D01*
X138596666Y-91367380D01*
X139215714Y-91367380D01*
%TO.C,C1*%
X133818333Y-93542142D02*
X133770714Y-93589761D01*
X133627857Y-93637380D01*
X133532619Y-93637380D01*
X133389761Y-93589761D01*
X133294523Y-93494523D01*
X133246904Y-93399285D01*
X133199285Y-93208809D01*
X133199285Y-93065952D01*
X133246904Y-92875476D01*
X133294523Y-92780238D01*
X133389761Y-92685000D01*
X133532619Y-92637380D01*
X133627857Y-92637380D01*
X133770714Y-92685000D01*
X133818333Y-92732619D01*
X134770714Y-93637380D02*
X134199285Y-93637380D01*
X134485000Y-93637380D02*
X134485000Y-92637380D01*
X134389761Y-92780238D01*
X134294523Y-92875476D01*
X134199285Y-92923095D01*
%TO.C,IC1*%
D13*
X133380238Y-88204523D02*
X133380238Y-86934523D01*
X134710714Y-88083571D02*
X134650238Y-88144047D01*
X134468809Y-88204523D01*
X134347857Y-88204523D01*
X134166428Y-88144047D01*
X134045476Y-88023095D01*
X133985000Y-87902142D01*
X133924523Y-87660238D01*
X133924523Y-87478809D01*
X133985000Y-87236904D01*
X134045476Y-87115952D01*
X134166428Y-86995000D01*
X134347857Y-86934523D01*
X134468809Y-86934523D01*
X134650238Y-86995000D01*
X134710714Y-87055476D01*
X135920238Y-88204523D02*
X135194523Y-88204523D01*
X135557380Y-88204523D02*
X135557380Y-86934523D01*
X135436428Y-87115952D01*
X135315476Y-87236904D01*
X135194523Y-87297380D01*
%TD*%
M02*
