%TF.GenerationSoftware,KiCad,Pcbnew,5.1.8-db9833491~87~ubuntu20.04.1*%
%TF.CreationDate,2020-11-21T16:44:56+09:00*%
%TF.ProjectId,ICM-42688-P_breakout,49434d2d-3432-4363-9838-2d505f627265,V1.0.0*%
%TF.SameCoordinates,Original*%
%TF.FileFunction,Soldermask,Top*%
%TF.FilePolarity,Negative*%
%FSLAX46Y46*%
G04 Gerber Fmt 4.6, Leading zero omitted, Abs format (unit mm)*
G04 Created by KiCad (PCBNEW 5.1.8-db9833491~87~ubuntu20.04.1) date 2020-11-21 16:44:56*
%MOMM*%
%LPD*%
G01*
G04 APERTURE LIST*
%ADD10O,1.800000X1.800000*%
G04 APERTURE END LIST*
D10*
%TO.C,J2*%
X142875000Y-86995000D03*
X142875000Y-89535000D03*
X142875000Y-92075000D03*
G36*
G01*
X143775000Y-93765000D02*
X143775000Y-95465000D01*
G75*
G02*
X143725000Y-95515000I-50000J0D01*
G01*
X142025000Y-95515000D01*
G75*
G02*
X141975000Y-95465000I0J50000D01*
G01*
X141975000Y-93765000D01*
G75*
G02*
X142025000Y-93715000I50000J0D01*
G01*
X143725000Y-93715000D01*
G75*
G02*
X143775000Y-93765000I0J-50000D01*
G01*
G37*
%TD*%
%TO.C,J1*%
X128905000Y-86995000D03*
X128905000Y-89535000D03*
X128905000Y-92075000D03*
G36*
G01*
X129805000Y-93765000D02*
X129805000Y-95465000D01*
G75*
G02*
X129755000Y-95515000I-50000J0D01*
G01*
X128055000Y-95515000D01*
G75*
G02*
X128005000Y-95465000I0J50000D01*
G01*
X128005000Y-93765000D01*
G75*
G02*
X128055000Y-93715000I50000J0D01*
G01*
X129755000Y-93715000D01*
G75*
G02*
X129805000Y-93765000I0J-50000D01*
G01*
G37*
%TD*%
%TO.C,C3*%
G36*
G01*
X138705000Y-94890000D02*
X138705000Y-94340000D01*
G75*
G02*
X138955000Y-94090000I250000J0D01*
G01*
X139455000Y-94090000D01*
G75*
G02*
X139705000Y-94340000I0J-250000D01*
G01*
X139705000Y-94890000D01*
G75*
G02*
X139455000Y-95140000I-250000J0D01*
G01*
X138955000Y-95140000D01*
G75*
G02*
X138705000Y-94890000I0J250000D01*
G01*
G37*
G36*
G01*
X137155000Y-94890000D02*
X137155000Y-94340000D01*
G75*
G02*
X137405000Y-94090000I250000J0D01*
G01*
X137905000Y-94090000D01*
G75*
G02*
X138155000Y-94340000I0J-250000D01*
G01*
X138155000Y-94890000D01*
G75*
G02*
X137905000Y-95140000I-250000J0D01*
G01*
X137405000Y-95140000D01*
G75*
G02*
X137155000Y-94890000I0J250000D01*
G01*
G37*
%TD*%
%TO.C,C2*%
G36*
G01*
X138580000Y-92270000D02*
X138580000Y-91880000D01*
G75*
G02*
X138745000Y-91715000I165000J0D01*
G01*
X139075000Y-91715000D01*
G75*
G02*
X139240000Y-91880000I0J-165000D01*
G01*
X139240000Y-92270000D01*
G75*
G02*
X139075000Y-92435000I-165000J0D01*
G01*
X138745000Y-92435000D01*
G75*
G02*
X138580000Y-92270000I0J165000D01*
G01*
G37*
G36*
G01*
X137620000Y-92270000D02*
X137620000Y-91880000D01*
G75*
G02*
X137785000Y-91715000I165000J0D01*
G01*
X138115000Y-91715000D01*
G75*
G02*
X138280000Y-91880000I0J-165000D01*
G01*
X138280000Y-92270000D01*
G75*
G02*
X138115000Y-92435000I-165000J0D01*
G01*
X137785000Y-92435000D01*
G75*
G02*
X137620000Y-92270000I0J165000D01*
G01*
G37*
%TD*%
%TO.C,C1*%
G36*
G01*
X134260000Y-94890000D02*
X134260000Y-94340000D01*
G75*
G02*
X134510000Y-94090000I250000J0D01*
G01*
X135010000Y-94090000D01*
G75*
G02*
X135260000Y-94340000I0J-250000D01*
G01*
X135260000Y-94890000D01*
G75*
G02*
X135010000Y-95140000I-250000J0D01*
G01*
X134510000Y-95140000D01*
G75*
G02*
X134260000Y-94890000I0J250000D01*
G01*
G37*
G36*
G01*
X132710000Y-94890000D02*
X132710000Y-94340000D01*
G75*
G02*
X132960000Y-94090000I250000J0D01*
G01*
X133460000Y-94090000D01*
G75*
G02*
X133710000Y-94340000I0J-250000D01*
G01*
X133710000Y-94890000D01*
G75*
G02*
X133460000Y-95140000I-250000J0D01*
G01*
X132960000Y-95140000D01*
G75*
G02*
X132710000Y-94890000I0J250000D01*
G01*
G37*
%TD*%
%TO.C,IC1*%
G36*
G01*
X133920000Y-89470000D02*
X133920000Y-88570000D01*
G75*
G02*
X133970000Y-88520000I50000J0D01*
G01*
X134270000Y-88520000D01*
G75*
G02*
X134320000Y-88570000I0J-50000D01*
G01*
X134320000Y-89470000D01*
G75*
G02*
X134270000Y-89520000I-50000J0D01*
G01*
X133970000Y-89520000D01*
G75*
G02*
X133920000Y-89470000I0J50000D01*
G01*
G37*
G36*
G01*
X134420000Y-89470000D02*
X134420000Y-88570000D01*
G75*
G02*
X134470000Y-88520000I50000J0D01*
G01*
X134770000Y-88520000D01*
G75*
G02*
X134820000Y-88570000I0J-50000D01*
G01*
X134820000Y-89470000D01*
G75*
G02*
X134770000Y-89520000I-50000J0D01*
G01*
X134470000Y-89520000D01*
G75*
G02*
X134420000Y-89470000I0J50000D01*
G01*
G37*
G36*
G01*
X134920000Y-89470000D02*
X134920000Y-88570000D01*
G75*
G02*
X134970000Y-88520000I50000J0D01*
G01*
X135270000Y-88520000D01*
G75*
G02*
X135320000Y-88570000I0J-50000D01*
G01*
X135320000Y-89470000D01*
G75*
G02*
X135270000Y-89520000I-50000J0D01*
G01*
X134970000Y-89520000D01*
G75*
G02*
X134920000Y-89470000I0J50000D01*
G01*
G37*
G36*
G01*
X136470000Y-89620000D02*
X135570000Y-89620000D01*
G75*
G02*
X135520000Y-89570000I0J50000D01*
G01*
X135520000Y-89270000D01*
G75*
G02*
X135570000Y-89220000I50000J0D01*
G01*
X136470000Y-89220000D01*
G75*
G02*
X136520000Y-89270000I0J-50000D01*
G01*
X136520000Y-89570000D01*
G75*
G02*
X136470000Y-89620000I-50000J0D01*
G01*
G37*
G36*
G01*
X136470000Y-90120000D02*
X135570000Y-90120000D01*
G75*
G02*
X135520000Y-90070000I0J50000D01*
G01*
X135520000Y-89770000D01*
G75*
G02*
X135570000Y-89720000I50000J0D01*
G01*
X136470000Y-89720000D01*
G75*
G02*
X136520000Y-89770000I0J-50000D01*
G01*
X136520000Y-90070000D01*
G75*
G02*
X136470000Y-90120000I-50000J0D01*
G01*
G37*
G36*
G01*
X136470000Y-90620000D02*
X135570000Y-90620000D01*
G75*
G02*
X135520000Y-90570000I0J50000D01*
G01*
X135520000Y-90270000D01*
G75*
G02*
X135570000Y-90220000I50000J0D01*
G01*
X136470000Y-90220000D01*
G75*
G02*
X136520000Y-90270000I0J-50000D01*
G01*
X136520000Y-90570000D01*
G75*
G02*
X136470000Y-90620000I-50000J0D01*
G01*
G37*
G36*
G01*
X136470000Y-91120000D02*
X135570000Y-91120000D01*
G75*
G02*
X135520000Y-91070000I0J50000D01*
G01*
X135520000Y-90770000D01*
G75*
G02*
X135570000Y-90720000I50000J0D01*
G01*
X136470000Y-90720000D01*
G75*
G02*
X136520000Y-90770000I0J-50000D01*
G01*
X136520000Y-91070000D01*
G75*
G02*
X136470000Y-91120000I-50000J0D01*
G01*
G37*
G36*
G01*
X134920000Y-91770000D02*
X134920000Y-90870000D01*
G75*
G02*
X134970000Y-90820000I50000J0D01*
G01*
X135270000Y-90820000D01*
G75*
G02*
X135320000Y-90870000I0J-50000D01*
G01*
X135320000Y-91770000D01*
G75*
G02*
X135270000Y-91820000I-50000J0D01*
G01*
X134970000Y-91820000D01*
G75*
G02*
X134920000Y-91770000I0J50000D01*
G01*
G37*
G36*
G01*
X134420000Y-91770000D02*
X134420000Y-90870000D01*
G75*
G02*
X134470000Y-90820000I50000J0D01*
G01*
X134770000Y-90820000D01*
G75*
G02*
X134820000Y-90870000I0J-50000D01*
G01*
X134820000Y-91770000D01*
G75*
G02*
X134770000Y-91820000I-50000J0D01*
G01*
X134470000Y-91820000D01*
G75*
G02*
X134420000Y-91770000I0J50000D01*
G01*
G37*
G36*
G01*
X133920000Y-91770000D02*
X133920000Y-90870000D01*
G75*
G02*
X133970000Y-90820000I50000J0D01*
G01*
X134270000Y-90820000D01*
G75*
G02*
X134320000Y-90870000I0J-50000D01*
G01*
X134320000Y-91770000D01*
G75*
G02*
X134270000Y-91820000I-50000J0D01*
G01*
X133970000Y-91820000D01*
G75*
G02*
X133920000Y-91770000I0J50000D01*
G01*
G37*
G36*
G01*
X133670000Y-91120000D02*
X132770000Y-91120000D01*
G75*
G02*
X132720000Y-91070000I0J50000D01*
G01*
X132720000Y-90770000D01*
G75*
G02*
X132770000Y-90720000I50000J0D01*
G01*
X133670000Y-90720000D01*
G75*
G02*
X133720000Y-90770000I0J-50000D01*
G01*
X133720000Y-91070000D01*
G75*
G02*
X133670000Y-91120000I-50000J0D01*
G01*
G37*
G36*
G01*
X133670000Y-90620000D02*
X132770000Y-90620000D01*
G75*
G02*
X132720000Y-90570000I0J50000D01*
G01*
X132720000Y-90270000D01*
G75*
G02*
X132770000Y-90220000I50000J0D01*
G01*
X133670000Y-90220000D01*
G75*
G02*
X133720000Y-90270000I0J-50000D01*
G01*
X133720000Y-90570000D01*
G75*
G02*
X133670000Y-90620000I-50000J0D01*
G01*
G37*
G36*
G01*
X133670000Y-90120000D02*
X132770000Y-90120000D01*
G75*
G02*
X132720000Y-90070000I0J50000D01*
G01*
X132720000Y-89770000D01*
G75*
G02*
X132770000Y-89720000I50000J0D01*
G01*
X133670000Y-89720000D01*
G75*
G02*
X133720000Y-89770000I0J-50000D01*
G01*
X133720000Y-90070000D01*
G75*
G02*
X133670000Y-90120000I-50000J0D01*
G01*
G37*
G36*
G01*
X133670000Y-89620000D02*
X132770000Y-89620000D01*
G75*
G02*
X132720000Y-89570000I0J50000D01*
G01*
X132720000Y-89270000D01*
G75*
G02*
X132770000Y-89220000I50000J0D01*
G01*
X133670000Y-89220000D01*
G75*
G02*
X133720000Y-89270000I0J-50000D01*
G01*
X133720000Y-89570000D01*
G75*
G02*
X133670000Y-89620000I-50000J0D01*
G01*
G37*
%TD*%
M02*
