%TF.GenerationSoftware,KiCad,Pcbnew,5.1.8-db9833491~87~ubuntu20.04.1*%
%TF.CreationDate,2020-11-21T16:44:56+09:00*%
%TF.ProjectId,ICM-42688-P_breakout,49434d2d-3432-4363-9838-2d505f627265,V1.0.0*%
%TF.SameCoordinates,Original*%
%TF.FileFunction,Paste,Top*%
%TF.FilePolarity,Positive*%
%FSLAX46Y46*%
G04 Gerber Fmt 4.6, Leading zero omitted, Abs format (unit mm)*
G04 Created by KiCad (PCBNEW 5.1.8-db9833491~87~ubuntu20.04.1) date 2020-11-21 16:44:56*
%MOMM*%
%LPD*%
G01*
G04 APERTURE LIST*
%ADD10R,0.300000X0.900000*%
%ADD11R,0.900000X0.300000*%
G04 APERTURE END LIST*
%TO.C,C3*%
G36*
G01*
X138755000Y-94865000D02*
X138755000Y-94365000D01*
G75*
G02*
X138980000Y-94140000I225000J0D01*
G01*
X139430000Y-94140000D01*
G75*
G02*
X139655000Y-94365000I0J-225000D01*
G01*
X139655000Y-94865000D01*
G75*
G02*
X139430000Y-95090000I-225000J0D01*
G01*
X138980000Y-95090000D01*
G75*
G02*
X138755000Y-94865000I0J225000D01*
G01*
G37*
G36*
G01*
X137205000Y-94865000D02*
X137205000Y-94365000D01*
G75*
G02*
X137430000Y-94140000I225000J0D01*
G01*
X137880000Y-94140000D01*
G75*
G02*
X138105000Y-94365000I0J-225000D01*
G01*
X138105000Y-94865000D01*
G75*
G02*
X137880000Y-95090000I-225000J0D01*
G01*
X137430000Y-95090000D01*
G75*
G02*
X137205000Y-94865000I0J225000D01*
G01*
G37*
%TD*%
%TO.C,C2*%
G36*
G01*
X138630000Y-92245000D02*
X138630000Y-91905000D01*
G75*
G02*
X138770000Y-91765000I140000J0D01*
G01*
X139050000Y-91765000D01*
G75*
G02*
X139190000Y-91905000I0J-140000D01*
G01*
X139190000Y-92245000D01*
G75*
G02*
X139050000Y-92385000I-140000J0D01*
G01*
X138770000Y-92385000D01*
G75*
G02*
X138630000Y-92245000I0J140000D01*
G01*
G37*
G36*
G01*
X137670000Y-92245000D02*
X137670000Y-91905000D01*
G75*
G02*
X137810000Y-91765000I140000J0D01*
G01*
X138090000Y-91765000D01*
G75*
G02*
X138230000Y-91905000I0J-140000D01*
G01*
X138230000Y-92245000D01*
G75*
G02*
X138090000Y-92385000I-140000J0D01*
G01*
X137810000Y-92385000D01*
G75*
G02*
X137670000Y-92245000I0J140000D01*
G01*
G37*
%TD*%
%TO.C,C1*%
G36*
G01*
X134310000Y-94865000D02*
X134310000Y-94365000D01*
G75*
G02*
X134535000Y-94140000I225000J0D01*
G01*
X134985000Y-94140000D01*
G75*
G02*
X135210000Y-94365000I0J-225000D01*
G01*
X135210000Y-94865000D01*
G75*
G02*
X134985000Y-95090000I-225000J0D01*
G01*
X134535000Y-95090000D01*
G75*
G02*
X134310000Y-94865000I0J225000D01*
G01*
G37*
G36*
G01*
X132760000Y-94865000D02*
X132760000Y-94365000D01*
G75*
G02*
X132985000Y-94140000I225000J0D01*
G01*
X133435000Y-94140000D01*
G75*
G02*
X133660000Y-94365000I0J-225000D01*
G01*
X133660000Y-94865000D01*
G75*
G02*
X133435000Y-95090000I-225000J0D01*
G01*
X132985000Y-95090000D01*
G75*
G02*
X132760000Y-94865000I0J225000D01*
G01*
G37*
%TD*%
D10*
%TO.C,IC1*%
X134120000Y-89020000D03*
X134620000Y-89020000D03*
X135120000Y-89020000D03*
D11*
X136020000Y-89420000D03*
X136020000Y-89920000D03*
X136020000Y-90420000D03*
X136020000Y-90920000D03*
D10*
X135120000Y-91320000D03*
X134620000Y-91320000D03*
X134120000Y-91320000D03*
D11*
X133220000Y-90920000D03*
X133220000Y-90420000D03*
X133220000Y-89920000D03*
X133220000Y-89420000D03*
%TD*%
M02*
